<svg width="32" height="32" viewBox="0 0 32 32" fill="none" xmlns="http://www.w3.org/2000/svg">
<path d="M11.25 18H8.75C8.3125 18 8 17.6875 8 17.25V14.75C8 14.375 8.3125 14 8.75 14H11.25C11.625 14 12 14.375 12 14.75V17.25C12 17.6875 11.625 18 11.25 18ZM18 17.25C18 17.6875 17.625 18 17.25 18H14.75C14.3125 18 14 17.6875 14 17.25V14.75C14 14.375 14.3125 14 14.75 14H17.25C17.625 14 18 14.375 18 14.75V17.25ZM24 17.25C24 17.6875 23.625 18 23.25 18H20.75C20.3125 18 20 17.6875 20 17.25V14.75C20 14.375 20.3125 14 20.75 14H23.25C23.625 14 24 14.375 24 14.75V17.25ZM18 23.25C18 23.6875 17.625 24 17.25 24H14.75C14.3125 24 14 23.6875 14 23.25V20.75C14 20.375 14.3125 20 14.75 20H17.25C17.625 20 18 20.375 18 20.75V23.25ZM12 23.25C12 23.6875 11.625 24 11.25 24H8.75C8.3125 24 8 23.6875 8 23.25V20.75C8 20.375 8.3125 20 8.75 20H11.25C11.625 20 12 20.375 12 20.75V23.25ZM24 23.25C24 23.6875 23.625 24 23.25 24H20.75C20.3125 24 20 23.6875 20 23.25V20.75C20 20.375 20.3125 20 20.75 20H23.25C23.625 20 24 20.375 24 20.75V23.25ZM30 7V29C30 30.6875 28.625 32 27 32H5C3.3125 32 2 30.6875 2 29V7C2 5.375 3.3125 4 5 4H8V0.75C8 0.375 8.3125 0 8.75 0H11.25C11.625 0 12 0.375 12 0.75V4H20V0.75C20 0.375 20.3125 0 20.75 0H23.25C23.625 0 24 0.375 24 0.75V4H27C28.625 4 30 5.375 30 7ZM27 28.625V10H5V28.625C5 28.875 5.125 29 5.375 29H26.625C26.8125 29 27 28.875 27 28.625Z" fill="black" fill-opacity="0.24"/>
</svg>
