<svg width="47" height="48" viewBox="0 0 47 48" fill="none" xmlns="http://www.w3.org/2000/svg">
<path d="M23.5 0.75C36.3438 0.75 46.75 11.1562 46.75 24C46.75 36.8438 36.3438 47.25 23.5 47.25C10.6562 47.25 0.25 36.8438 0.25 24C0.25 11.1562 10.6562 0.75 23.5 0.75ZM23.5 44.25C34.6562 44.25 43.75 35.25 43.75 24C43.75 12.8438 34.6562 3.75 23.5 3.75C12.25 3.75 3.25 12.8438 3.25 24C3.25 35.25 12.25 44.25 23.5 44.25ZM16 22.5C14.3125 22.5 13 21.1875 13 19.5C13 17.9062 14.3125 16.5 16 16.5C17.5938 16.5 19 17.9062 19 19.5C19 21.1875 17.5938 22.5 16 22.5ZM31 16.5C32.5938 16.5 34 17.9062 34 19.5C34 21.1875 32.5938 22.5 31 22.5C29.3125 22.5 28 21.1875 28 19.5C28 17.9062 29.3125 16.5 31 16.5ZM23.5 27C27.1562 27 33.0625 29.25 33.9062 34.0312C34.0938 35.0625 33.7188 36.0938 32.9688 36.75C31.9375 37.6875 30.8125 37.5938 30.0625 37.4062C27.3438 36.5625 24.8125 36 23.5 36C22.0938 36 19.5625 36.5625 16.8438 37.4062C15.8125 37.6875 14.7812 37.5 13.9375 36.75C13.1875 36.0938 12.8125 35.0625 13 34.0312C13.8438 29.25 19.75 27 23.5 27ZM23.5 33C25.0938 33 27.8125 33.5625 31 34.5C30.4375 31.7812 26.2188 30 23.5 30C20.6875 30 16.4688 31.7812 16 34.5C19.0938 33.5625 21.8125 33 23.5 33Z" fill="#7B2CBF"/>
</svg>
